<svg width="120" height="120" viewBox="0 0 120 120" fill="none" xmlns="http://www.w3.org/2000/svg">
<g clip-path="url(#clip0_265_6860)">
<path d="M59.9228 109.531C11.2705 110.649 10.2037 87.5346 10.2037 60.0416C10.2037 32.5493 32.5706 10.1824 60.0632 10.1824C87.5559 10.1824 109.923 32.5493 109.923 60.0416C109.923 87.5346 87.4154 109.531 59.9228 109.531ZM60.0632 11.5543C33.3269 11.5543 12.0258 33.3094 11.5756 60.0416C11.1568 84.9059 37.571 115.933 60.0632 108.53C72.1252 95.2454 106.228 80.9376 108.551 60.0416C111.505 33.4694 86.7995 11.5543 60.0632 11.5543Z" fill="white"/>
<path d="M52.8862 85.186C52.0371 85.186 51.1996 84.9883 50.4401 84.6084C49.6806 84.2286 49.0201 83.6771 48.5107 82.9976L35.0954 65.1103C34.6641 64.5356 34.3502 63.8817 34.1716 63.1857C33.9931 62.4897 33.9534 61.7654 34.0549 61.0541C34.1563 60.3428 34.397 59.6584 34.763 59.0401C35.129 58.4218 35.6133 57.8817 36.1881 57.4506C36.7629 57.0195 37.4171 56.7059 38.1131 56.5277C38.8092 56.3495 39.5335 56.3101 40.2448 56.4119C40.9561 56.5137 41.6403 56.7547 42.2584 57.121C42.8765 57.4873 43.4164 57.9718 43.8473 58.5468L52.624 70.2483L75.166 36.4358C75.5644 35.8381 76.0767 35.3247 76.6736 34.925C77.2704 34.5253 77.9402 34.2471 78.6445 34.1062C79.3489 33.9653 80.0741 33.9646 80.7788 34.104C81.4835 34.2434 82.1538 34.5202 82.7515 34.9187C83.3492 35.3171 83.8625 35.8294 84.2622 36.4263C84.6619 37.0231 84.9402 37.6929 85.0811 38.3972C85.2219 39.1016 85.2227 39.8268 85.0833 40.5315C84.9439 41.2362 84.667 41.9065 84.2686 42.5042L57.438 82.7501C56.9526 83.478 56.2998 84.0789 55.5343 84.5024C54.7688 84.9259 53.913 85.1597 53.0385 85.1842C52.9877 85.1851 52.937 85.186 52.8862 85.186Z" fill="white"/>
</g>
<defs>
<clipPath id="clip0_265_6860">
<rect width="100" height="100" fill="white" transform="translate(10 10)"/>
</clipPath>
</defs>
</svg>
