<svg width="134" height="120" viewBox="0 0 134 120" fill="none" xmlns="http://www.w3.org/2000/svg">
<g clip-path="url(#clip0_265_6816)">
<path d="M132.506 45.8904C132.458 45.8905 132.411 45.8758 132.372 45.8484L67.5123 0.678263C67.3149 0.541442 67.0804 0.468322 66.8402 0.468732C66.6001 0.469141 66.3658 0.54306 66.1689 0.680553L1.77637 45.8479C1.72544 45.8837 1.6624 45.8977 1.60113 45.8869C1.53985 45.8762 1.48536 45.8415 1.44964 45.7906C1.41391 45.7397 1.39988 45.6766 1.41064 45.6154C1.42139 45.5541 1.45605 45.4996 1.50698 45.4639L65.8995 0.296474C66.1752 0.104012 66.5032 0.000554795 66.8395 2.22506e-06C67.1757 -0.000550345 67.5041 0.101828 67.7804 0.293383L132.64 45.4634C132.681 45.492 132.712 45.5328 132.728 45.5801C132.744 45.6274 132.745 45.6785 132.73 45.7262C132.715 45.7738 132.685 45.8154 132.645 45.845C132.604 45.8745 132.556 45.8904 132.506 45.8904Z" fill="white"/>
<path d="M5.45593 47.4915L66.904 1.95093L128.818 50.7319L70.0701 85.5587L38.1748 78.2885L5.45593 47.4915Z" fill="white"/>
<path d="M40.8671 107.07H10.5103C10.3239 107.07 10.1393 107.034 9.96698 106.962C9.7947 106.891 9.63814 106.787 9.50625 106.655C9.37436 106.523 9.26973 106.367 9.19835 106.195C9.12696 106.023 9.09021 105.838 9.09021 105.652C9.09021 105.465 9.12696 105.281 9.19835 105.108C9.26973 104.936 9.37436 104.78 9.50625 104.648C9.63814 104.516 9.7947 104.412 9.96698 104.341C10.1393 104.27 10.3239 104.233 10.5103 104.233H40.8671C41.0535 104.233 41.2382 104.27 41.4104 104.341C41.5827 104.412 41.7393 104.516 41.8712 104.648C42.0031 104.78 42.1077 104.936 42.1791 105.108C42.2505 105.281 42.2872 105.465 42.2872 105.652C42.2872 105.838 42.2505 106.023 42.1791 106.195C42.1077 106.367 42.0031 106.523 41.8712 106.655C41.7393 106.787 41.5827 106.891 41.4104 106.962C41.2382 107.034 41.0535 107.07 40.8671 107.07Z" fill="white"/>
<path d="M21.4017 100.972H10.5103C10.3239 100.972 10.1393 100.936 9.96698 100.865C9.7947 100.794 9.63814 100.689 9.50625 100.557C9.37436 100.426 9.26973 100.269 9.19835 100.097C9.12696 99.925 9.09021 99.7404 9.09021 99.554C9.09021 99.3676 9.12696 99.183 9.19835 99.0108C9.26973 98.8386 9.37436 98.6822 9.50625 98.5505C9.63814 98.4188 9.7947 98.3143 9.96698 98.2432C10.1393 98.172 10.3239 98.1355 10.5103 98.1357H21.4017C21.5881 98.1355 21.7727 98.172 21.945 98.2432C22.1172 98.3143 22.2738 98.4188 22.4057 98.5505C22.5376 98.6822 22.6422 98.8386 22.7136 99.0108C22.785 99.183 22.8217 99.3676 22.8217 99.554C22.8217 99.7404 22.785 99.925 22.7136 100.097C22.6422 100.269 22.5376 100.426 22.4057 100.557C22.2738 100.689 22.1172 100.794 21.945 100.865C21.7727 100.936 21.5881 100.972 21.4017 100.972Z" fill="white"/>
<path d="M67.768 72.8572C67.5373 72.8574 67.3087 72.8127 67.0952 72.7254L29.1982 57.0008V7.78034C29.1987 7.3451 29.3719 6.92783 29.6796 6.62007C29.9874 6.3123 30.4047 6.13918 30.8399 6.13867H103.542C103.978 6.13918 104.395 6.3123 104.703 6.62007C105.01 6.92783 105.183 7.3451 105.184 7.78034V57.0352L105.113 57.0656L68.4613 72.7177C68.2418 72.8099 68.0061 72.8574 67.768 72.8572Z" fill="black"/>
<path d="M67.7681 72.9742C67.5221 72.9744 67.2784 72.9268 67.0506 72.8338L29.0811 57.079V7.78017C29.0816 7.31383 29.2671 6.86675 29.5968 6.537C29.9266 6.20725 30.3736 6.02177 30.84 6.02124H103.542C104.009 6.02177 104.456 6.20725 104.786 6.537C105.115 6.86675 105.301 7.31383 105.301 7.78017V57.1124L68.5074 72.8253C68.2734 72.9238 68.022 72.9744 67.7681 72.9742ZM29.5501 56.7657L67.2294 72.4001C67.5809 72.5427 67.9745 72.5404 68.3242 72.3936L104.832 56.8028V7.78017C104.832 7.4382 104.696 7.11035 104.454 6.86853C104.212 6.62672 103.884 6.49069 103.542 6.49029H30.84C30.498 6.49069 30.1702 6.62672 29.9284 6.86853C29.6865 7.11035 29.5505 7.4382 29.5501 7.78017L29.5501 56.7657Z" fill="black"/>
<path d="M132.037 45.4214H131.99L105.067 56.9178L68.2301 72.6473C68.0862 72.7078 67.9317 72.7394 67.7756 72.7402C67.6194 72.741 67.4646 72.711 67.3201 72.652L29.3155 56.8849L1.73076 45.4402L1.68862 45.4214H1.64167C1.20642 45.4219 0.789133 45.595 0.481365 45.9028C0.173597 46.2105 0.000482944 46.6278 0 47.0631V118.358C0.000483563 118.794 0.173598 119.211 0.481365 119.519C0.789133 119.826 1.20642 120 1.64167 120H132.037C132.472 120 132.89 119.826 133.197 119.519C133.505 119.211 133.678 118.794 133.679 118.358V47.0631C133.678 46.6278 133.505 46.2105 133.197 45.9028C132.89 45.595 132.472 45.4219 132.037 45.4214ZM133.21 118.358C133.209 118.669 133.086 118.967 132.866 119.187C132.646 119.407 132.348 119.531 132.037 119.531H1.64167C1.33071 119.531 1.03252 119.407 0.812639 119.187C0.592757 118.967 0.469172 118.669 0.469048 118.358V47.0631C0.469473 46.7598 0.587098 46.4685 0.79733 46.2499C1.00756 46.0314 1.29413 45.9026 1.59712 45.8904L29.3155 57.3915L67.1396 73.0858C67.549 73.2524 68.0078 73.2499 68.4154 73.0788L105.067 57.4267L132.084 45.8904C132.386 45.9035 132.672 46.0327 132.882 46.2511C133.092 46.4695 133.209 46.7603 133.21 47.0631V118.358Z" fill="white"/>
<path d="M67.3893 58.9C65.9903 58.9027 64.6283 58.4503 63.5089 57.6111L63.4395 57.559L48.8261 46.3704C48.1493 45.8519 47.5813 45.2051 47.1545 44.467C46.7276 43.729 46.4504 42.914 46.3385 42.0688C46.2266 41.2236 46.2823 40.3646 46.5024 39.5409C46.7225 38.7172 47.1026 37.9449 47.6212 37.2682C48.1397 36.5914 48.7865 36.0234 49.5246 35.5965C50.2626 35.1697 51.0776 34.8925 51.9228 34.7806C52.768 34.6687 53.627 34.7244 54.4507 34.9445C55.2744 35.1645 56.0467 35.5447 56.7234 36.0633L66.1889 43.3213L88.5573 14.1496C89.0761 13.473 89.7231 12.9052 90.4613 12.4786C91.1995 12.0521 92.0145 11.7751 92.8598 11.6635C93.705 11.5519 94.564 11.6079 95.3876 11.8283C96.2112 12.0487 96.9834 12.4292 97.66 12.948L97.5209 13.1368L97.6636 12.9507C99.0284 13.9997 99.9213 15.5471 100.147 17.2536C100.372 18.9601 99.911 20.6863 98.8652 22.0534L72.5545 56.3663C71.946 57.157 71.1635 57.7969 70.2678 58.2363C69.372 58.6757 68.387 58.9028 67.3893 58.9Z" fill="white"/>
</g>
<defs>
<clipPath id="clip0_265_6816">
<rect width="133.679" height="120" fill="white"/>
</clipPath>
</defs>
</svg>
