<svg width="120" height="120" viewBox="0 0 120 120" fill="none" xmlns="http://www.w3.org/2000/svg">
<g clip-path="url(#clip0_265_10968)">
<path d="M59.9228 109.531C11.2704 110.649 10.2036 87.5346 10.2036 60.0416C10.2036 32.5493 32.5706 10.1824 60.0632 10.1824C87.5558 10.1824 109.923 32.5493 109.923 60.0416C109.923 87.5346 87.4154 109.531 59.9228 109.531ZM60.0632 11.5543C33.3269 11.5543 12.0258 33.3094 11.5755 60.0416C11.1568 84.9059 37.5709 115.933 60.0632 108.53C72.1251 95.2454 106.228 80.9376 108.551 60.0416C111.505 33.4694 86.7995 11.5543 60.0632 11.5543Z" fill="black"/>
<path d="M52.8862 85.186C52.037 85.186 51.1995 84.9883 50.4401 84.6084C49.6806 84.2286 49.02 83.6771 48.5107 82.9976L35.0954 65.1103C34.664 64.5356 34.3501 63.8817 34.1716 63.1857C33.993 62.4897 33.9533 61.7654 34.0548 61.0541C34.1563 60.3428 34.3969 59.6584 34.763 59.0401C35.129 58.4218 35.6132 57.8817 36.188 57.4506C36.7629 57.0195 37.417 56.7059 38.1131 56.5277C38.8091 56.3495 39.5335 56.3101 40.2447 56.4119C40.956 56.5137 41.6402 56.7547 42.2584 57.121C42.8765 57.4873 43.4164 57.9718 43.8472 58.5468L52.6239 70.2483L75.1659 36.4358C75.5644 35.8381 76.0767 35.3247 76.6735 34.925C77.2704 34.5253 77.9401 34.2471 78.6445 34.1062C79.3488 33.9653 80.0741 33.9646 80.7788 34.104C81.4834 34.2434 82.1537 34.5202 82.7514 34.9187C83.3491 35.3171 83.8625 35.8294 84.2622 36.4263C84.6619 37.0231 84.9401 37.6929 85.081 38.3972C85.2219 39.1016 85.2226 39.8268 85.0832 40.5315C84.9438 41.2362 84.667 41.9065 84.2685 42.5042L57.4379 82.7501C56.9526 83.478 56.2998 84.0789 55.5343 84.5024C54.7688 84.9259 53.9129 85.1597 53.0384 85.1842C52.9876 85.1851 52.9369 85.186 52.8862 85.186Z" fill="black"/>
</g>
<defs>
<clipPath id="clip0_265_10968">
<rect width="100" height="100" fill="white" transform="translate(10 10)"/>
</clipPath>
</defs>
</svg>
