<svg width="121" height="120" viewBox="0 0 121 120" fill="none" xmlns="http://www.w3.org/2000/svg">
<g clip-path="url(#clip0_477_2017)">
<path d="M60.4228 109.531C11.7704 110.649 10.7036 87.5346 10.7036 60.0416C10.7036 32.5493 33.0706 10.1824 60.5632 10.1824C88.0558 10.1824 110.423 32.5493 110.423 60.0416C110.423 87.5346 87.9154 109.531 60.4228 109.531ZM60.5632 11.5543C33.8269 11.5543 12.5258 33.3094 12.0755 60.0416C11.6568 84.9059 38.0709 115.933 60.5632 108.53C72.6251 95.2454 106.728 80.9376 109.051 60.0416C112.005 33.4694 87.2995 11.5543 60.5632 11.5543Z" fill="#438FFF"/>
<path d="M46.3861 85.1837C45.537 85.1837 44.6995 84.9859 43.94 84.6061C43.1806 84.2262 42.52 83.6748 42.0107 82.9953L28.5954 65.1079C28.164 64.5333 27.8501 63.8793 27.6716 63.1833C27.493 62.4874 27.4533 61.763 27.5548 61.0517C27.6563 60.3404 27.8969 59.6561 28.2629 59.0378C28.629 58.4195 29.1132 57.8794 29.688 57.4483C30.2629 57.0172 30.917 56.7036 31.6131 56.5253C32.3091 56.3471 33.0335 56.3078 33.7447 56.4096C34.456 56.5114 35.1402 56.7523 35.7584 57.1187C36.3765 57.485 36.9164 57.9695 37.3472 58.5445L46.1239 70.246L68.6659 36.4335C69.471 35.2272 70.7221 34.39 72.1443 34.106C73.5664 33.8219 75.0432 34.1143 76.2499 34.9187C77.4565 35.7232 78.2944 36.9739 78.5791 38.3959C78.8639 39.8179 78.5723 41.2948 77.7685 42.5019L50.9379 82.7478C50.4525 83.4757 49.7997 84.0765 49.0343 84.5001C48.2688 84.9236 47.4129 85.1574 46.5384 85.1819C46.4876 85.1828 46.4369 85.1837 46.3861 85.1837Z" fill="#67A4FF" fill-opacity="0.09"/>
<path d="M53.3863 85.186C52.5371 85.186 51.6996 84.9883 50.9402 84.6084C50.1807 84.2286 49.5201 83.6771 49.0108 82.9976L35.5955 65.1103C35.1641 64.5356 34.8502 63.8817 34.6717 63.1857C34.4931 62.4897 34.4535 61.7654 34.5549 61.0541C34.6564 60.3428 34.897 59.6584 35.2631 59.0401C35.6291 58.4218 36.1133 57.8817 36.6882 57.4506C37.263 57.0195 37.9171 56.7059 38.6132 56.5277C39.3092 56.3495 40.0336 56.3101 40.7449 56.4119C41.4561 56.5137 42.1404 56.7547 42.7585 57.121C43.3766 57.4873 43.9165 57.9718 44.3473 58.5468L53.1241 70.2483L75.666 36.4358C76.0645 35.8381 76.5768 35.3247 77.1736 34.925C77.7705 34.5253 78.4402 34.2471 79.1446 34.1062C79.849 33.9653 80.5742 33.9646 81.2789 34.104C81.9836 34.2434 82.6539 34.5202 83.2515 34.9187C83.8492 35.3171 84.3626 35.8294 84.7623 36.4263C85.162 37.0231 85.4402 37.6929 85.5811 38.3972C85.722 39.1016 85.7227 39.8268 85.5833 40.5315C85.4439 41.2362 85.1671 41.9065 84.7687 42.5042L57.938 82.7501C57.4527 83.478 56.7999 84.0789 56.0344 84.5024C55.2689 84.9259 54.413 85.1597 53.5385 85.1842C53.4878 85.1851 53.437 85.186 53.3863 85.186Z" fill="#438FFF"/>
</g>
<defs>
<clipPath id="clip0_477_2017">
<rect width="100" height="100" fill="white" transform="translate(10.5 10)"/>
</clipPath>
</defs>
</svg>
