<svg width="135" height="120" viewBox="0 0 135 120" fill="none" xmlns="http://www.w3.org/2000/svg">
<g clip-path="url(#clip0_477_1977)">
<path d="M133.167 45.8904C133.119 45.8905 133.072 45.8758 133.033 45.8484L68.173 0.678263C67.9756 0.541442 67.7411 0.468322 67.5009 0.468732C67.2607 0.469141 67.0265 0.54306 66.8295 0.680553L2.43705 45.8479C2.38611 45.8837 2.32308 45.8977 2.2618 45.8869C2.20053 45.8762 2.14603 45.8415 2.11031 45.7906C2.07459 45.7397 2.06056 45.6766 2.07131 45.6154C2.08207 45.5541 2.11672 45.4996 2.16765 45.4639L66.5602 0.296474C66.8359 0.104012 67.1639 0.000554795 67.5002 2.22506e-06C67.8364 -0.000550345 68.1647 0.101828 68.4411 0.293383L133.301 45.4634C133.342 45.492 133.373 45.5328 133.389 45.5801C133.405 45.6274 133.405 45.6785 133.39 45.7262C133.375 45.7738 133.346 45.8154 133.305 45.845C133.265 45.8745 133.216 45.8904 133.167 45.8904Z" fill="#0042A4"/>
<path d="M6.11664 47.4916L67.5647 1.95099L129.479 50.732L70.7308 85.5588L38.8355 78.2885L6.11664 47.4916Z" fill="#0042A4"/>
<path d="M41.5278 107.07H11.1709C10.9845 107.07 10.7999 107.034 10.6276 106.962C10.4553 106.891 10.2988 106.787 10.1669 106.655C10.035 106.523 9.93038 106.367 9.85899 106.195C9.7876 106.023 9.75085 105.838 9.75085 105.652C9.75085 105.465 9.7876 105.281 9.85899 105.108C9.93038 104.936 10.035 104.78 10.1669 104.648C10.2988 104.516 10.4553 104.412 10.6276 104.341C10.7999 104.27 10.9845 104.233 11.1709 104.233H41.5278C41.7142 104.233 41.8988 104.27 42.0711 104.341C42.2434 104.412 42.3999 104.516 42.5318 104.648C42.6637 104.78 42.7683 104.936 42.8397 105.108C42.9111 105.281 42.9479 105.465 42.9479 105.652C42.9479 105.838 42.9111 106.023 42.8397 106.195C42.7683 106.367 42.6637 106.523 42.5318 106.655C42.3999 106.787 42.2434 106.891 42.0711 106.962C41.8988 107.034 41.7142 107.07 41.5278 107.07Z" fill="#0042A4"/>
<path d="M22.0623 100.972H11.1709C10.9845 100.972 10.7999 100.936 10.6276 100.865C10.4553 100.794 10.2988 100.689 10.1669 100.557C10.035 100.426 9.93038 100.269 9.85899 100.097C9.7876 99.925 9.75085 99.7404 9.75085 99.554C9.75085 99.3676 9.7876 99.183 9.85899 99.0108C9.93038 98.8386 10.035 98.6822 10.1669 98.5505C10.2988 98.4188 10.4553 98.3143 10.6276 98.2432C10.7999 98.172 10.9845 98.1355 11.1709 98.1357H22.0623C22.2487 98.1355 22.4333 98.172 22.6056 98.2432C22.7779 98.3143 22.9344 98.4188 23.0663 98.5505C23.1982 98.6822 23.3029 98.8386 23.3742 99.0108C23.4456 99.183 23.4824 99.3676 23.4824 99.554C23.4824 99.7404 23.4456 99.925 23.3742 100.097C23.3029 100.269 23.1982 100.426 23.0663 100.557C22.9344 100.689 22.7779 100.794 22.6056 100.865C22.4333 100.936 22.2487 100.972 22.0623 100.972Z" fill="#0042A4"/>
<path d="M68.4287 72.8571C68.198 72.8574 67.9694 72.8126 67.7559 72.7253L29.8589 57.0008V7.78028C29.8595 7.34504 30.0326 6.92777 30.3403 6.62C30.6481 6.31224 31.0654 6.13912 31.5006 6.13861H104.203C104.638 6.13912 105.056 6.31224 105.363 6.62C105.671 6.92777 105.844 7.34504 105.845 7.78028V57.0351L105.773 57.0656L69.122 72.7176C68.9025 72.8099 68.6668 72.8573 68.4287 72.8571Z" fill="#94BFFF"/>
<path d="M68.4288 72.9742C68.1827 72.9745 67.939 72.9268 67.7112 72.8338L29.7417 57.079V7.78023C29.7422 7.3139 29.9277 6.86681 30.2575 6.53706C30.5872 6.20731 31.0343 6.02183 31.5006 6.0213H104.203C104.669 6.02183 105.116 6.20731 105.446 6.53706C105.776 6.86681 105.961 7.3139 105.962 7.78023V57.1125L69.1681 72.8254C68.934 72.9238 68.6827 72.9744 68.4288 72.9742ZM30.2107 56.7657L67.8901 72.4002C68.2415 72.5428 68.6351 72.5404 68.9848 72.3936L105.493 56.8028V7.78023C105.493 7.43826 105.357 7.11041 105.115 6.86859C104.873 6.62678 104.545 6.49075 104.203 6.49035H31.5006C31.1587 6.49075 30.8308 6.62678 30.589 6.86859C30.3472 7.11041 30.2112 7.43826 30.2108 7.78023L30.2107 56.7657Z" fill="#0042A4"/>
<path d="M132.698 45.4214H132.651L105.727 56.9178L68.8908 72.6473C68.7468 72.7078 68.5924 72.7394 68.4362 72.7402C68.2801 72.741 68.1253 72.711 67.9807 72.652L29.9762 56.8849L2.39143 45.4402L2.34929 45.4214H2.30234C1.86709 45.4219 1.44981 45.595 1.14204 45.9028C0.834273 46.2105 0.661158 46.6278 0.660675 47.0631V118.358C0.661159 118.794 0.834273 119.211 1.14204 119.519C1.44981 119.826 1.86709 120 2.30234 120H132.698C133.133 120 133.55 119.826 133.858 119.519C134.166 119.211 134.339 118.794 134.339 118.358V47.0631C134.339 46.6278 134.166 46.2105 133.858 45.9028C133.55 45.595 133.133 45.4219 132.698 45.4214ZM133.87 118.358C133.87 118.669 133.747 118.967 133.527 119.187C133.307 119.407 133.009 119.531 132.698 119.531H2.30234C1.99138 119.531 1.6932 119.407 1.47331 119.187C1.25343 118.967 1.12985 118.669 1.12972 118.358V47.0631C1.13015 46.7598 1.24777 46.4685 1.45801 46.2499C1.66824 46.0314 1.9548 45.9026 2.2578 45.8904L29.9762 57.3915L67.8003 73.0858C68.2097 73.2524 68.6685 73.2499 69.0761 73.0788L105.727 57.4267L132.745 45.8904C133.047 45.9035 133.333 46.0327 133.543 46.2511C133.752 46.4695 133.87 46.7603 133.87 47.0631V118.358Z" fill="#005CE4"/>
<path d="M68.05 58.9C66.6509 58.9026 65.289 58.4502 64.1696 57.611L64.1002 57.5589L49.4867 46.3704C48.81 45.8518 48.242 45.205 47.8151 44.467C47.3883 43.7289 47.1111 42.914 46.9992 42.0688C46.8873 41.2235 46.943 40.3646 47.1631 39.5409C47.3832 38.7172 47.7633 37.9449 48.2819 37.2681C48.8004 36.5913 49.4472 36.0233 50.1853 35.5965C50.9233 35.1697 51.7382 34.8924 52.5835 34.7805C53.4287 34.6686 54.2877 34.7243 55.1114 34.9444C55.9351 35.1645 56.7073 35.5447 57.3841 36.0632L66.8496 43.3212L89.218 14.1495C89.7368 13.4729 90.3837 12.9051 91.122 12.4786C91.8602 12.052 92.6752 11.775 93.5205 11.6634C94.3657 11.5519 95.2247 11.6079 96.0483 11.8283C96.8719 12.0487 97.6441 12.4291 98.3206 12.9479L98.1816 13.1368L98.3242 12.9507C99.689 13.9996 100.582 15.5471 100.807 17.2536C101.033 18.9601 100.572 20.6862 99.5258 22.0534L73.2152 56.3662C72.6067 57.1569 71.8242 57.7968 70.9284 58.2362C70.0327 58.6756 69.0477 58.9028 68.05 58.9Z" fill="#0042A4"/>
</g>
<defs>
<clipPath id="clip0_477_1977">
<rect width="133.679" height="120" fill="white" transform="translate(0.660675)"/>
</clipPath>
</defs>
</svg>
